<?xml version="1.0" standalone="no"?>
<!DOCTYPE svg PUBLIC "-//W3C//DTD SVG 20010904//EN"
 "http://www.w3.org/TR/2001/REC-SVG-20010904/DTD/svg10.dtd">
<svg version="1.0" xmlns="http://www.w3.org/2000/svg"
 width="832.000000pt" height="832.000000pt" viewBox="0 0 832.000000 832.000000"
 preserveAspectRatio="xMidYMid meet">
<metadata>
Created by potrace 1.14, written by Peter Selinger 2001-2017
</metadata>
<g transform="translate(0.000000,832.000000) scale(0.100000,-0.100000)"
fill="#000000" stroke="none">
<path d="M1749 8156 c-2 -2 -35 -6 -73 -10 -120 -11 -302 -55 -383 -92 -17 -8
-36 -14 -42 -14 -6 0 -11 -5 -11 -12 0 -6 -3 -9 -6 -5 -3 3 -31 -8 -63 -25
-149 -80 -290 -208 -375 -338 -16 -25 -36 -56 -45 -70 -23 -35 -98 -205 -90
-205 1 0 -3 -9 -9 -21 -6 -11 -13 -32 -16 -45 -3 -13 -12 -53 -21 -89 -9 -35
-18 -80 -21 -100 -2 -19 -7 -44 -9 -56 -15 -68 -18 -256 -20 -1144 -1 -542 -5
-996 -9 -1010 -9 -38 -54 -122 -80 -151 -80 -90 -167 -121 -346 -123 l-125 -1
-3 -433 c-2 -409 -1 -433 15 -431 10 0 20 0 23 -1 17 -6 52 -5 56 2 3 4 10 6
15 2 6 -3 47 -7 92 -8 81 -1 197 -35 197 -57 0 -5 6 -9 14 -9 25 0 104 -101
128 -164 l23 -61 1 -975 c1 -536 4 -997 8 -1025 4 -27 9 -70 11 -95 2 -25 7
-56 10 -70 4 -20 26 -121 30 -140 15 -66 50 -163 88 -240 12 -24 21 -48 20
-51 -1 -4 4 -13 12 -19 8 -7 15 -16 15 -21 0 -20 100 -151 169 -220 83 -84
177 -152 284 -206 68 -34 212 -86 273 -98 107 -21 202 -36 256 -40 35 -2 63
-4 63 -5 0 -1 207 -2 460 -2 l460 -2 3 496 2 495 -262 -1 c-241 -1 -306 2
-363 18 -120 32 -173 67 -243 161 -14 18 -40 79 -58 135 -17 51 -18 120 -21
940 -2 815 -6 1072 -17 1125 -2 11 -7 40 -12 65 -9 51 -8 48 -18 75 -4 11 -13
34 -18 50 -35 99 -130 218 -223 279 -63 42 -154 89 -172 89 -7 0 -13 4 -13 9
0 5 -4 7 -9 3 -5 -3 -12 -1 -16 5 -5 8 62 45 93 51 4 1 39 23 77 50 71 49 139
115 172 167 10 15 20 29 23 32 15 12 72 150 86 205 4 17 9 37 11 45 2 8 5 29
8 45 2 17 6 45 9 62 14 73 17 215 21 1028 3 468 7 861 11 875 3 14 7 34 8 45
5 31 18 79 25 90 3 6 6 15 7 21 3 22 55 95 93 132 22 21 63 49 93 64 97 47
160 55 445 54 167 -1 264 3 266 9 3 6 4 154 4 331 0 177 3 326 7 333 4 6 4 11
-1 11 -4 0 -7 65 -7 145 l2 146 -493 -1 c-271 -1 -495 -3 -496 -4z"/>
<path d="M4478 7179 c-3 -16 -1 -32 3 -35 5 -2 4 -16 -1 -29 -6 -15 -6 -27 0
-30 5 -3 6 -15 0 -29 -4 -12 -4 -29 0 -36 5 -8 6 -18 3 -23 -8 -13 -9 -77 -1
-77 4 0 5 -6 2 -14 -8 -22 -10 -226 -2 -226 4 0 5 -6 2 -14 -8 -21 -10 -226
-3 -226 4 0 4 -15 0 -32 -4 -18 -4 -45 0 -60 4 -16 3 -28 -2 -28 -5 0 -4 -11
1 -25 6 -15 6 -27 0 -30 -6 -3 -6 -15 0 -30 6 -15 6 -25 0 -25 -5 0 -5 -12 0
-30 5 -17 5 -32 0 -35 -5 -3 -5 -16 0 -30 6 -15 6 -27 0 -30 -6 -3 -6 -15 0
-30 6 -15 6 -27 0 -30 -6 -3 -6 -15 0 -30 6 -15 6 -25 0 -25 -5 0 -5 -12 -1
-28 5 -15 5 -37 0 -49 -5 -13 -4 -25 1 -28 6 -3 6 -15 0 -30 -6 -15 -6 -27 0
-30 5 -3 6 -15 0 -29 -4 -12 -4 -29 0 -36 5 -8 6 -18 3 -23 -8 -13 -9 -77 -1
-77 4 0 5 -6 2 -14 -8 -22 -10 -226 -2 -226 4 0 5 -6 2 -14 -8 -21 -10 -226
-3 -226 4 0 4 -15 0 -32 -4 -18 -4 -45 0 -60 4 -16 3 -28 -2 -28 -5 0 -4 -11
1 -25 6 -15 6 -27 0 -30 -6 -3 -6 -15 0 -30 6 -15 6 -25 0 -25 -5 0 -5 -12 0
-30 5 -17 5 -32 0 -35 -5 -3 -5 -16 0 -30 6 -15 6 -27 0 -30 -6 -3 -6 -15 0
-30 6 -15 6 -27 0 -30 -6 -3 -6 -15 0 -30 6 -15 6 -25 0 -25 -5 0 -5 -12 -1
-28 5 -15 5 -37 0 -49 -5 -13 -4 -25 1 -28 6 -3 6 -15 0 -30 -6 -15 -6 -27 0
-30 5 -3 6 -15 0 -29 -4 -12 -4 -29 0 -36 5 -8 6 -18 3 -23 -8 -13 -9 -77 -1
-77 4 0 5 -6 2 -14 -8 -22 -10 -226 -2 -226 4 0 5 -6 2 -14 -8 -21 -10 -226
-3 -226 4 0 4 -15 0 -32 -4 -18 -4 -45 0 -60 4 -16 3 -28 -2 -28 -5 0 -4 -11
1 -25 6 -15 6 -27 0 -30 -6 -3 -6 -15 0 -30 6 -15 6 -25 0 -25 -5 0 -5 -12 0
-30 5 -17 5 -32 0 -35 -5 -3 -5 -16 0 -30 6 -15 6 -27 0 -30 -6 -3 -6 -15 0
-30 6 -15 6 -27 0 -30 -6 -3 -6 -15 0 -30 6 -15 6 -25 0 -25 -5 0 -5 -12 -1
-28 5 -15 5 -37 0 -49 -5 -13 -4 -25 1 -28 6 -3 6 -15 0 -30 -5 -13 -6 -26 -2
-29 9 -5 7 -70 -2 -85 -4 -5 -2 -12 3 -16 7 -3 7 -15 1 -30 -6 -15 -6 -27 1
-30 5 -4 7 -11 3 -16 -9 -15 -11 -79 -2 -79 3 0 3 -13 -2 -30 -5 -18 -5 -30 0
-30 6 0 6 -10 0 -25 -6 -15 -6 -26 0 -30 7 -4 6 -13 0 -25 -6 -12 -7 -21 0
-25 6 -3 6 -15 0 -30 -6 -15 -6 -27 1 -30 5 -4 7 -11 3 -16 -9 -15 -11 -79 -2
-79 3 0 3 -13 -2 -30 -5 -18 -5 -30 0 -30 6 0 5 -11 0 -26 -6 -15 -6 -32 -1
-42 6 -11 6 -24 0 -34 -6 -11 -6 -19 1 -23 6 -4 7 -13 1 -24 -5 -9 -6 -23 -1
-31 4 -7 4 -24 0 -36 -6 -14 -5 -26 0 -29 6 -3 6 -15 0 -30 -6 -15 -6 -27 0
-30 6 -3 6 -15 0 -30 -6 -15 -6 -27 0 -30 6 -4 7 -13 1 -24 -5 -9 -6 -23 -1
-31 4 -7 4 -24 0 -36 -6 -14 -5 -26 0 -29 6 -3 6 -15 0 -30 -6 -15 -6 -27 0
-30 6 -3 6 -15 0 -30 -6 -15 -6 -27 0 -30 6 -4 7 -13 1 -24 -5 -9 -6 -23 -1
-31 4 -7 4 -24 0 -36 -6 -14 -5 -26 0 -29 6 -3 6 -15 0 -30 -6 -15 -6 -27 0
-30 6 -3 6 -15 0 -30 -6 -15 -6 -27 0 -30 6 -4 7 -13 1 -24 -5 -9 -6 -23 -1
-31 4 -7 4 -24 0 -36 -6 -14 -5 -26 0 -29 6 -3 6 -15 0 -30 -6 -15 -6 -27 0
-30 6 -3 6 -15 0 -30 -6 -15 -6 -27 0 -30 6 -4 7 -13 1 -24 -5 -9 -6 -23 -1
-31 4 -7 6 -18 4 -24 -7 -18 -10 -106 -4 -106 3 0 4 -20 2 -45 l-4 -45 674 0
674 0 0 1140 c-1 628 1 1146 4 1153 4 10 215 12 980 12 l975 0 1 508 0 507
-95 0 c-53 0 -493 1 -978 1 l-883 0 0 787 0 787 1233 0 1232 0 2 483 c2 266 3
489 4 495 1 7 1 27 0 45 -1 31 -3 33 -38 32 -68 -1 -87 -1 -141 -3 -28 -1 -52
0 -52 3 0 3 -30 3 -66 0 -36 -3 -67 -4 -70 -1 -6 6 -153 3 -165 -4 -5 -4 -9
-2 -9 3 0 5 -16 6 -38 2 -21 -4 -47 -5 -58 -3 -28 5 -136 5 -141 0 -2 -3 -19
-1 -37 3 -19 4 -39 4 -46 0 -7 -4 -27 -4 -46 0 -19 4 -36 5 -39 0 -2 -4 -21
-4 -42 -1 -21 4 -56 4 -78 1 -22 -3 -56 -3 -75 0 -19 3 -57 3 -85 0 -27 -3
-66 -3 -85 0 -19 3 -53 3 -75 0 -22 -3 -54 -3 -72 1 -17 3 -37 3 -43 -1 -7 -4
-27 -4 -46 0 -19 5 -37 4 -40 -1 -3 -5 -10 -7 -15 -3 -5 3 -38 5 -72 4 -34 -1
-66 -1 -72 -1 -5 0 -55 0 -110 0 -55 0 -109 0 -120 1 -22 0 -46 0 -123 -3 -28
-1 -52 0 -52 3 0 3 -30 3 -66 0 -36 -3 -67 -4 -70 -1 -6 6 -153 3 -165 -4 -5
-4 -9 -1 -9 5 0 6 -4 8 -10 5 -5 -3 -47 -6 -92 -6 -46 1 -112 1 -148 1 -36 -1
-81 0 -100 1 -42 2 -63 2 -110 0 -19 -1 -46 -2 -60 -2 -14 0 -49 -1 -78 -2
-28 -1 -52 0 -52 3 0 3 -30 3 -66 0 -36 -3 -67 -4 -70 -1 -6 6 -153 3 -165 -4
-5 -4 -9 -1 -9 5 0 6 -4 8 -10 5 -5 -3 -47 -6 -92 -5 -150 0 -170 0 -179 -6
-5 -3 -9 -1 -9 4 0 5 -17 6 -39 2 -21 -4 -46 -3 -54 1 -11 7 -16 2 -19 -22z"/>
</g>
</svg>
