<svg xmlns="http://www.w3.org/2000/svg" width="179" height="178" fill="none"><path fill="#CF4D16" d="M0 2.5A2.5 2.5 0 0 1 2.5 0H16v16H0V2.5ZM163 162h16v13.5a2.5 2.5 0 0 1-2.5 2.5H163v-16Z"/><path fill="#F58A07" d="M177.295 176.304 1.719 1.709C1.086 1.08 1.532 0 2.424 0h79.434a10 10 0 0 1 7.07 2.929l87.143 87.142A10.001 10.001 0 0 1 179 97.142v78.453c0 .89-1.074 1.337-1.705.709Z"/><path fill="#fff" d="m123.185 56.062-5.16 10.126 8.036 8.037-11.225-1.778-5.16 10.127-1.778-11.226-11.226-1.778 10.127-5.16-1.778-11.225 8.037 8.036 10.127-5.16Z"/><path fill="#fff" d="m89.416 34.805-3.175 6.23 4.944 4.945-6.906-1.094-3.174 6.23-1.094-6.906-6.906-1.094 6.23-3.174-1.094-6.907 4.944 4.945 6.23-3.175ZM146.416 86.805l-3.175 6.23 4.944 4.945-6.906-1.094-3.174 6.23-1.094-6.906-6.906-1.094 6.23-3.174-1.094-6.907 4.944 4.945 6.231-3.175Z" opacity=".4"/></svg>