<svg width="510" height="33" fill="none" xmlns="http://www.w3.org/2000/svg"><path d="M41 10.01h3.609v14.738H41V10.01zm5.048 9.194c0-3.65 2.248-5.839 5.621-5.839s5.621 2.188 5.621 5.84c0 3.65-2.17 5.86-5.621 5.86-3.451 0-5.621-2.13-5.621-5.86zm7.667 0c0-2.007-.776-3.186-2.012-3.186-1.237 0-2.001 1.134-2.001 3.186s.764 3.175 2 3.175c1.237 0 2.035-1.123 2.035-3.164l-.022-.01zm5.014 6.304h3.485c.159.378.436.694.79.899.352.204.762.287 1.166.235 1.383 0 2.103-.749 2.103-1.86v-2.04h.011a3.47 3.47 0 0 1-1.381 1.519 3.428 3.428 0 0 1-1.992.465c-2.642 0-4.395-2.03-4.395-5.522 0-3.492 1.675-5.669 4.496-5.669a3.43 3.43 0 0 1 2.025.53 3.473 3.473 0 0 1 1.348 1.613h-.101v-2.052h3.575v11.043c0 2.664-2.338 4.331-5.778 4.331-3.126-.011-5.127-1.451-5.33-3.48l-.022-.012zm7.555-6.304c0-1.78-.81-2.902-2.091-2.902-1.282 0-2.069 1.133-2.069 2.902 0 1.769.776 2.812 2.069 2.812s2.091-.964 2.091-2.812zm5.003 0c0-3.65 2.248-5.839 5.62-5.839 3.374 0 5.622 2.188 5.622 5.84 0 3.65-2.18 5.86-5.621 5.86-3.44 0-5.599-2.13-5.599-5.86h-.022zm7.667 0c0-2.007-.787-3.186-2.012-3.186-1.226 0-2.001 1.134-2.001 3.186s.764 3.175 2 3.175c1.237 0 2.035-1.123 2.035-3.164l-.022-.01zm5.037-8.265c-.016-.371.079-.738.271-1.054a1.83 1.83 0 0 1 2.845-.369 1.865 1.865 0 0 1 .437 2.035c-.137.345-.373.64-.678.848-.304.208-.664.32-1.032.32a1.763 1.763 0 0 1-1.277-.5 1.793 1.793 0 0 1-.544-1.269l-.022-.011zm0 2.675h3.653v11.18h-3.597l-.056-11.18zm16.796 5.59c0 3.64-1.62 5.748-4.374 5.748a3.43 3.43 0 0 1-2.01-.502 3.473 3.473 0 0 1-1.362-1.572h-.068v5.51h-3.609v-14.74h3.587v1.996h.067a3.496 3.496 0 0 1 1.35-1.614 3.452 3.452 0 0 1 2.023-.54c2.833-.023 4.463 2.075 4.463 5.725l-.067-.01zm-3.677 0c0-1.769-.82-2.914-2.09-2.914-1.271 0-2.07 1.134-2.08 2.914-.012 1.78.809 2.903 2.08 2.903 1.27 0 2.158-1.055 2.158-2.892l-.068-.01zm9.837-5.85c3.025 0 4.902 1.44 4.925 3.753h-3.294c0-.805-.664-1.304-1.653-1.304s-1.462.385-1.462.963c0 .579.416.76 1.248.93l2.316.476c2.249.476 3.148 1.384 3.148 3.073 0 2.267-2.08 3.81-5.171 3.81-3.092 0-5.104-1.497-5.251-3.776h3.497c.101.828.753 1.315 1.81 1.315s1.551-.34 1.551-.94c0-.602-.337-.704-1.203-.885l-2.091-.442c-2.169-.465-3.305-1.61-3.305-3.323.067-2.222 1.956-3.639 5.003-3.639l-.068-.011zm17.314 11.428h-3.497v-2.097h-.067a3.197 3.197 0 0 1-1.209 1.733 3.15 3.15 0 0 1-2.018.591 3.826 3.826 0 0 1-1.587-.288 3.86 3.86 0 0 1-1.332-.918 3.893 3.893 0 0 1-1.049-3v-7.177h3.608v6.394c0 1.316.686 2.03 1.81 2.03a1.837 1.837 0 0 0 1.387-.65 1.857 1.857 0 0 0 .423-1.482v-6.292h3.598l-.067 11.156zm1.742-11.168h3.508v2.155h.078a3.242 3.242 0 0 1 1.181-1.723 3.198 3.198 0 0 1 1.979-.636 2.86 2.86 0 0 1 1.994.584c.57.438.957 1.075 1.086 1.786h.157a3.4 3.4 0 0 1 1.287-1.763 3.353 3.353 0 0 1 2.086-.607 3.486 3.486 0 0 1 2.658 1.08 3.545 3.545 0 0 1 .973 2.719v7.585h-3.631v-6.656c0-1.134-.528-1.768-1.551-1.768a1.565 1.565 0 0 0-1.204.534 1.599 1.599 0 0 0-.382 1.268v6.622h-3.44v-6.69c0-1.133-.551-1.734-1.54-1.734a1.6 1.6 0 0 0-1.215.544 1.633 1.633 0 0 0-.393 1.281v6.599h-3.608l-.023-11.18zM34 11.038c0-2.224-.69-4.395-1.978-6.23A11.288 11.288 0 0 0 26.778.751a11.62 11.62 0 0 0-6.68-.465 11.402 11.402 0 0 0-5.782 3.288H0V33h30.226V19.248a11.047 11.047 0 0 0 2.786-3.713c.65-1.415.987-2.947.988-4.497zm-5.816 0a5.285 5.285 0 0 1-.926 2.994 5.5 5.5 0 0 1-2.479 1.988 5.667 5.667 0 0 1-3.195.311 5.577 5.577 0 0 1-2.834-1.47 5.342 5.342 0 0 1-1.517-2.758 5.253 5.253 0 0 1 .313-3.112 5.418 5.418 0 0 1 2.036-2.418 5.635 5.635 0 0 1 3.073-.909c1.465 0 2.87.566 3.906 1.573a5.315 5.315 0 0 1 1.623 3.8zM24.41 27.336H5.816V9.24h5.667a10.39 10.39 0 0 0-.173 1.799c.003 2.929 1.2 5.737 3.327 7.809 2.127 2.07 5.01 3.236 8.018 3.239a11.386 11.386 0 0 0 1.755-.145v5.395z" fill="#4A5D69"/><path fill="#4A5D69" d="M29 31h1v1h-1zM227 9.9h3.378v13.313H227V9.9zm4.717 8.286c0-3.292 2.072-5.257 5.27-5.257 3.197 0 5.269 1.965 5.269 5.257 0 3.293-2.027 5.269-5.269 5.269-3.243 0-5.27-1.921-5.27-5.269zm7.15 0c0-1.81-.732-2.875-1.88-2.875-1.149 0-1.869 1.097-1.869 2.875 0 1.779.709 2.854 1.869 2.854 1.159 0 1.88-1.01 1.88-2.843v-.01zm4.661 5.675h3.243c.154.334.415.61.743.789.329.178.708.248 1.081.199 1.283 0 1.959-.68 1.959-1.669v-1.843h-.068a3.145 3.145 0 0 1-1.254 1.359 3.259 3.259 0 0 1-1.82.44c-2.465 0-4.098-1.832-4.098-4.982 0-3.15 1.554-5.137 4.143-5.137a3.292 3.292 0 0 1 1.864.492c.556.345.99.847 1.244 1.44v-1.833h3.378v9.988c0 2.403-2.173 3.896-5.382 3.896-2.984 0-4.842-1.306-5.033-3.128v-.011zm7.037-5.686c0-1.602-.754-2.612-1.948-2.612-1.193 0-1.925.999-1.925 2.612 0 1.614.72 2.525 1.925 2.525s1.948-.89 1.948-2.514v-.01zm4.65 0c0-3.292 2.071-5.257 5.269-5.257 3.197 0 5.28 1.965 5.28 5.257 0 3.293-2.026 5.269-5.28 5.269-3.254 0-5.269-1.91-5.269-5.258v-.01zm7.149 0c0-1.81-.732-2.875-1.88-2.875s-1.813 1.108-1.813 2.897c0 1.79.71 2.854 1.858 2.854 1.148 0 1.835-1.02 1.835-2.854v-.022zm4.684-7.452c-.009-.333.084-.66.266-.941.182-.281.446-.503.758-.638a1.764 1.764 0 0 1 1.888.32c.246.23.418.527.492.851.074.325.047.664-.077.974-.124.31-.339.577-.619.767-.279.19-.611.296-.952.302a1.682 1.682 0 0 1-1.24-.432 1.583 1.583 0 0 1-.516-1.181v-.022zm0 2.414h3.378v10.076h-3.378V13.137zm15.639 5.038c0 3.293-1.498 5.17-4.065 5.17a3.284 3.284 0 0 1-1.877-.45 3.163 3.163 0 0 1-1.275-1.416h-.068v4.961h-3.378V13.116h3.378v1.8h.068a3.166 3.166 0 0 1 1.25-1.453 3.294 3.294 0 0 1 1.88-.49c2.589.044 4.132 1.932 4.132 5.224l-.045-.022zm-3.378 0c0-1.602-.755-2.623-1.937-2.623s-1.936 1.032-1.947 2.623c-.012 1.592.765 2.613 1.947 2.613s1.937-1 1.937-2.59v-.023zm9.176-5.268c2.803 0 4.503 1.295 4.582 3.37h-3.073c0-.714-.608-1.164-1.543-1.164-.934 0-1.351.351-1.351.867s.372.68 1.126.834l2.162.428c2.06.429 2.938 1.24 2.938 2.766 0 2.086-1.948 3.425-4.819 3.425s-4.751-1.34-4.897-3.392h3.254c.101.747.709 1.186 1.7 1.186.99 0 1.441-.319 1.441-.845 0-.527-.315-.637-1.126-.802l-1.948-.406c-2.015-.406-3.074-1.449-3.074-2.985.023-1.976 1.836-3.26 4.628-3.26v-.022zm16.111 10.284h-3.254v-1.877h-.067a2.865 2.865 0 0 1-1.118 1.564 2.994 2.994 0 0 1-1.877.533 3.677 3.677 0 0 1-1.506-.233 3.602 3.602 0 0 1-1.271-.82 3.489 3.489 0 0 1-.807-1.26 3.41 3.41 0 0 1-.199-1.474v-6.508h3.378v5.75c0 1.197.63 1.834 1.677 1.834a1.755 1.755 0 0 0 1.298-.571 1.663 1.663 0 0 0 .414-1.328v-5.685h3.377l-.045 10.075zm1.633-10.075h3.265v1.942h.067a2.923 2.923 0 0 1 1.097-1.553 3.05 3.05 0 0 1 1.842-.576 2.74 2.74 0 0 1 1.876.55c.532.408.887.995.995 1.645h.068a3.098 3.098 0 0 1 1.202-1.627 3.232 3.232 0 0 1 1.973-.568 3.35 3.35 0 0 1 1.342.233c.426.168.811.422 1.129.745.319.323.564.708.72 1.13.156.42.22.87.186 1.316v6.86h-3.377v-5.982c0-1.097-.507-1.602-1.453-1.602a1.506 1.506 0 0 0-1.117.485 1.426 1.426 0 0 0-.358 1.14v5.96h-3.208v-6.026c0-1.01-.507-1.559-1.43-1.559a1.517 1.517 0 0 0-1.129.495 1.437 1.437 0 0 0-.369 1.151v5.938h-3.377l.056-10.097zM216.761 10.363a15.21 15.21 0 0 0-2.211-3.68 15.062 15.062 0 0 0-4.894-4.049 14.573 14.573 0 0 0-6.068-1.62 14.531 14.531 0 0 0-6.179 1.09 14.942 14.942 0 0 0-5.203 3.611 15.554 15.554 0 0 0-3.317 5.498 15.944 15.944 0 0 0 .925 12.633 15.338 15.338 0 0 0 4.079 4.92 14.346 14.346 0 0 0 3.539 2.091A14.384 14.384 0 0 0 203.038 32c3.969-.01 7.773-1.645 10.578-4.548 2.805-2.903 4.381-6.837 4.384-10.94a15.74 15.74 0 0 0-1.239-6.15zm-13.734-6.207c1.727 0 3.433.39 4.998 1.143-.381.17-.783.29-1.194.354a6.265 6.265 0 0 0-3.573 1.851 6.637 6.637 0 0 0-1.79 3.693 3.475 3.475 0 0 1-.977 2.066 3.274 3.274 0 0 1-2.02.963 6.265 6.265 0 0 0-3.573 1.85 6.637 6.637 0 0 0-1.79 3.694 3.38 3.38 0 0 1-.874 1.989 12.696 12.696 0 0 1-1.125-6.038c.123-2.079.753-4.091 1.832-5.85a12.109 12.109 0 0 1 4.335-4.21 11.635 11.635 0 0 1 5.762-1.528l-.011.023zm-9.145 20.357c.133-.126.265-.24.398-.377a6.34 6.34 0 0 0 1.791-3.692 3.39 3.39 0 0 1 .962-2.08 3.09 3.09 0 0 1 2.002-.983 6.265 6.265 0 0 0 3.573-1.85 6.638 6.638 0 0 0 1.79-3.694 3.39 3.39 0 0 1 .962-2.183 3.13 3.13 0 0 1 2.024-.949 5.983 5.983 0 0 0 3.318-1.634 11.922 11.922 0 0 1 2.609 3.177.991.991 0 0 1-.143.16 3.135 3.135 0 0 1-2.002 1.006 6.245 6.245 0 0 0-3.577 1.847 6.608 6.608 0 0 0-1.786 3.697 3.479 3.479 0 0 1-.959 2.08 3.273 3.273 0 0 1-2.016.983 6.293 6.293 0 0 0-3.587 1.848 6.662 6.662 0 0 0-1.809 3.696 3.683 3.683 0 0 1-.542 1.566 12.139 12.139 0 0 1-3.008-2.618zm9.145 4.412a11.621 11.621 0 0 1-3.317-.48c.369-.71.608-1.486.707-2.286a3.48 3.48 0 0 1 .955-2.076 3.273 3.273 0 0 1 2.009-.987 6.259 6.259 0 0 0 3.579-1.848 6.628 6.628 0 0 0 1.795-3.696 3.48 3.48 0 0 1 .955-2.076 3.273 3.273 0 0 1 2.009-.987 6.201 6.201 0 0 0 2.831-1.143c.466 1.826.521 3.739.161 5.59a12.56 12.56 0 0 1-2.238 5.093 12.05 12.05 0 0 1-4.18 3.553 11.645 11.645 0 0 1-5.266 1.286v.057z"/><path fill="#4A5D69" d="M206 30h1v1h-1zM400.438 12c.398 0 .53.142.53.525v8.66h4.501c.387 0 .531.142.531.525v.765c0 .383-.144.525-.531.525h-5.927c-.387 0-.542-.142-.542-.525v-9.95c0-.383.155-.525.542-.525h.896zM410 15.884c0-2.425 1.642-3.884 4.5-3.884 2.857 0 4.5 1.459 4.5 3.884v3.232c0 2.425-1.654 3.884-4.5 3.884s-4.5-1.459-4.5-3.884v-3.232zm7.11 0c0-1.365-.911-2.1-2.554-2.1-1.642 0-2.542.746-2.542 2.1v3.253c0 1.375.9 2.1 2.542 2.1 1.643 0 2.554-.756 2.554-2.1v-3.253zM432.463 16.491c.436 0 .536.15.536.55v2.173a3.499 3.499 0 0 1-.293 1.488 3.431 3.431 0 0 1-.89 1.212 4.792 4.792 0 0 1-3.35 1.075c-2.892 0-4.466-1.59-4.466-4.233V15.21c0-2.608 1.63-4.21 4.466-4.21 2.233 0 3.685.904 4.299 2.711a.506.506 0 0 1-.134.617.474.474 0 0 1-.201.093l-.871.309c-.38.137-.536.057-.67-.344a2.343 2.343 0 0 0-.963-1.17 2.251 2.251 0 0 0-1.46-.317c-1.641 0-2.534.812-2.534 2.288v3.638c0 1.499.904 2.288 2.534 2.288s2.635-.766 2.635-1.887v-.847h-2.423c-.402 0-.547-.16-.547-.56v-.778c0-.4.145-.55.547-.55h3.785zM438 15.884c0-2.425 1.643-3.884 4.5-3.884 2.858 0 4.5 1.459 4.5 3.884v3.232c0 2.425-1.654 3.884-4.5 3.884s-4.5-1.459-4.5-3.884v-3.232zm7.099 0c0-1.365-.912-2.1-2.543-2.1-1.631 0-2.554.746-2.554 2.1v3.253c0 1.375.912 2.1 2.554 2.1 1.643 0 2.543-.756 2.543-2.1v-3.253zM452 12.317c0-.24.069-.317.284-.317h.451c.216 0 .265.076.265.317v10.366c0 .24 0 .317-.265.317h-.451c-.215 0-.284-.076-.284-.317V12.317zM463.492 12c.93 0 1.822.362 2.48 1.006A3.397 3.397 0 0 1 467 15.433c0 .911-.37 1.784-1.028 2.428a3.547 3.547 0 0 1-2.48 1.006h-3.352v3.816c0 .24-.056.317-.291.317h-.525c-.235 0-.324-.076-.324-.317V12.317c0-.24.089-.317.324-.317h4.168zm-.101 5.784a2.479 2.479 0 0 0 1.722-.698 2.361 2.361 0 0 0 .714-1.685 2.361 2.361 0 0 0-.714-1.686 2.432 2.432 0 0 0-.79-.517 2.48 2.48 0 0 0-.932-.181h-3.352v4.767h3.352zM476.469 12.023a4.605 4.605 0 0 1 2.586.494c.781.41 1.393 1.035 1.746 1.782.093.167 0 .303-.187.386l-.512.21c-.21.072-.291.062-.419-.137a2.966 2.966 0 0 0-1.295-1.326 3.468 3.468 0 0 0-1.919-.386c-1.968 0-3.039.7-3.039 1.953-.012.382.132.756.404 1.052a1.82 1.82 0 0 0 1.075.555 8.71 8.71 0 0 0 1.933.335c.795.038 1.58.182 2.328.428a2.605 2.605 0 0 1 1.398.948c.331.45.479.99.419 1.526 0 1.953-1.584 3.133-4.495 3.133a4.592 4.592 0 0 1-2.729-.563c-.812-.461-1.422-1.158-1.73-1.975a.255.255 0 0 1-.006-.24.29.29 0 0 1 .082-.099.335.335 0 0 1 .122-.057l.512-.168a.346.346 0 0 1 .253.007.31.31 0 0 1 .103.07c.029.03.05.064.063.101a3.09 3.09 0 0 0 1.323 1.428 3.63 3.63 0 0 0 2.007.451c2.201 0 3.284-.689 3.284-2.088.02-.368-.105-.73-.355-1.023a1.765 1.765 0 0 0-1.007-.574 9.008 9.008 0 0 0-1.852-.293l-1.257-.146a12.053 12.053 0 0 1-1.165-.282 3.199 3.199 0 0 1-1.036-.49 2.57 2.57 0 0 1-.714-.905 2.32 2.32 0 0 1-.218-1.09c.082-1.827 1.607-3.017 4.297-3.017zM486.217 19.112c.05.757.417 1.469 1.026 1.99.609.52 1.414.81 2.251.81s1.642-.29 2.251-.81c.609-.521.976-1.233 1.027-1.99v-6.801c0-.236.082-.311.342-.311h.543c.26 0 .343.075.343.31v6.791c0 2.432-1.583 3.899-4.5 3.899s-4.5-1.467-4.5-3.899v-6.79c0-.236.083-.311.331-.311h.555c.248 0 .331.075.331.31v6.802zM509.682 12.002c.241 0 .318.076.318.317v10.364c0 .24-.077.317-.318.317h-.461c-.23 0-.307-.076-.307-.317v-6.308c0-.918.063-1.835.187-2.744h-.066a19.608 19.608 0 0 1-1.195 2.416l-2.358 4.143a.385.385 0 0 1-.361.24h-.307a.409.409 0 0 1-.373-.24l-2.391-4.187a17.55 17.55 0 0 1-1.096-2.383h-.066a23.9 23.9 0 0 1 .176 2.766v6.297c0 .24-.077.317-.318.317h-.428c-.241 0-.318-.076-.318-.317V12.319c0-.24.077-.317.318-.317h.395a.438.438 0 0 1 .438.251l3.838 6.8 3.816-6.734c.12-.23.186-.263.427-.263l.45-.054zM380.259 20.982v8.12c0 .312-.13.61-.36.83-.23.22-.543.344-.868.344a1.26 1.26 0 0 1-.869-.343 1.149 1.149 0 0 1-.359-.83v-8.11c.342.239.752.372 1.175.382.461.012.913-.126 1.281-.393zm10.458-2.348c-.311 0-.61.119-.831.33a1.1 1.1 0 0 0-.344.794v1.415c0 .311.13.61.36.83.23.22.543.343.868.343.326 0 .638-.123.869-.343.23-.22.359-.519.359-.83v-1.36a1.105 1.105 0 0 0-.358-.87 1.184 1.184 0 0 0-.426-.25 1.227 1.227 0 0 0-.497-.059zm-15.582 5.425a2.179 2.179 0 0 1-1.175-.382v8.144c0 .312.13.612.362.834.231.22.545.345.872.345.327 0 .641-.124.873-.345.231-.222.361-.522.361-.834v-8.087a2.228 2.228 0 0 1-1.293.325zm11.751-7.862a1.221 1.221 0 0 0-.869.308 1.133 1.133 0 0 0-.27.372c-.062.14-.095.29-.094.443v6.256c0 .313.13.613.361.834.231.221.545.346.872.346.328 0 .642-.125.873-.346.231-.22.361-.52.361-.834V17.4a1.076 1.076 0 0 0-.08-.475 1.128 1.128 0 0 0-.282-.4 1.174 1.174 0 0 0-.43-.25 1.224 1.224 0 0 0-.5-.055l.058-.022zm-3.901 2.404a2.22 2.22 0 0 1-1.234-.382v8.165c0 .313.13.613.362.834.231.221.545.346.872.346.327 0 .641-.125.873-.346.231-.22.361-.52.361-.834V18.23a2.147 2.147 0 0 1-1.293.393l.059-.022zm-10.517 6.256V2.045a1.033 1.033 0 0 0-.328-.74 1.132 1.132 0 0 0-.777-.305h-.258c-.291 0-.571.11-.777.305a1.033 1.033 0 0 0-.328.74v22.812c0 .28.116.548.324.746.207.198.488.31.781.31h.258c.293 0 .574-.112.781-.31.207-.198.324-.466.324-.746zm2.797-1.662h-.259a1.13 1.13 0 0 1-.781-.31 1.034 1.034 0 0 1-.324-.746V4.763c.004-.278.121-.544.328-.74.207-.195.486-.305.777-.305h.259c.29 0 .57.11.776.305.207.196.325.462.328.74V22.16c0 .28-.116.549-.323.747-.208.198-.488.309-.781.309v-.022zm3.889-2.674h-.27c-.29 0-.568-.11-.773-.306a1.021 1.021 0 0 1-.32-.738V7.458a1.018 1.018 0 0 1 .316-.745 1.105 1.105 0 0 1 .777-.31h.27c.291.003.569.115.774.313.204.197.319.464.319.742v12.019c0 .277-.115.542-.32.738a1.12 1.12 0 0 1-.773.306zm3.89-2.752h-.247c-.291 0-.57-.11-.777-.305a1.036 1.036 0 0 1-.328-.74v-6.469a1.026 1.026 0 0 1 .298-.79 1.118 1.118 0 0 1 .807-.333h.259c.293 0 .574.111.781.31.207.197.323.466.323.746v6.514a1.02 1.02 0 0 1-.319.754c-.103.1-.225.178-.36.232a1.15 1.15 0 0 1-.425.081h-.012zm3.901-2.414h-.258a1.13 1.13 0 0 1-.781-.31 1.03 1.03 0 0 1-.324-.746v-1.674c.003-.278.121-.544.328-.74.207-.195.486-.304.777-.304h.258c.291 0 .57.11.777.305.207.195.325.461.328.74v1.673c0 .278-.115.545-.32.742-.204.198-.482.31-.773.313h-.012z"/><path fill="#4A5D69" d="M375 31h1v1h-1z"/></svg>