<svg width="38" height="34" fill="none" xmlns="http://www.w3.org/2000/svg"><path fill-rule="evenodd" clip-rule="evenodd" d="M31.268 5.269c3.193 2.357 3.644 6.777.988 9.673L19 29.392 5.745 14.943c-2.657-2.896-2.206-7.317.987-9.675 3.269-2.413 8.014-1.643 10.253 1.663l.751 1.11c.45.664 1.381.856 2.08.429.22-.134.39-.312.507-.515l.693-1.023c2.238-3.307 6.983-4.077 10.252-1.664zM19 4.69C15.635.566 9.31-.256 4.884 3.012.325 6.378-.32 12.688 3.474 16.822l14.393 15.687a1.562 1.562 0 0 0 2.125.14 1.47 1.47 0 0 0 .215-.22l14.32-15.61c3.792-4.133 3.147-10.442-1.41-13.807C28.69-.256 22.366.566 19 4.69z" fill="#F58A07" stroke="#F58A07" stroke-width="2" stroke-linecap="round" stroke-linejoin="round"/></svg>