<svg width="22" height="20" fill="none" xmlns="http://www.w3.org/2000/svg"><g clip-path="url(#a)" stroke="#fff" stroke-width="2" stroke-linecap="round" stroke-linejoin="round"><path d="M15.556 1.667H6.663c-2.455 0-4.446 1.865-4.446 4.166v8.334c0 2.3 1.99 4.166 4.446 4.166h8.893c2.456 0 4.447-1.865 4.447-4.166V5.833c0-2.3-1.991-4.166-4.447-4.166z"/><path d="M14.667 9.475a3.15 3.15 0 0 1-.362 2.024 3.458 3.458 0 0 1-1.558 1.442 3.77 3.77 0 0 1-2.164.314 3.646 3.646 0 0 1-1.95-.934 3.265 3.265 0 0 1-.997-1.828 3.149 3.149 0 0 1 .335-2.028 3.45 3.45 0 0 1 1.539-1.46 3.767 3.767 0 0 1 2.16-.338 3.65 3.65 0 0 1 1.993.94c.54.506.892 1.16 1.004 1.868zM16.001 5.417h.01"/></g><defs><clipPath id="a"><path fill="#fff" transform="translate(.438)" d="M0 0h21.343v20H0z"/></clipPath></defs></svg>