<svg width="33" height="34" fill="none" xmlns="http://www.w3.org/2000/svg"><path fill-rule="evenodd" clip-rule="evenodd" d="M15.245.302a2.756 2.756 0 0 1 2.51 0l13.694 6.985c2.068 1.054 2.068 4.064 0 5.119l-1.995 1.017 1.995 1.018c2.068 1.054 2.068 4.064 0 5.118l-1.995 1.018 1.995 1.017c2.068 1.055 2.068 4.065 0 5.12l-13.695 6.984c-.79.403-1.719.403-2.509 0L1.551 26.713c-2.068-1.054-2.068-4.064 0-5.119l1.995-1.017-1.995-1.018c-2.068-1.054-2.068-4.064 0-5.118l1.995-1.018-1.995-1.017c-2.068-1.055-2.068-4.065 0-5.12L15.245.303zM7.324 12.151a1.411 1.411 0 0 0-.028-.014l-4.49-2.29L16.5 2.86l13.695 6.985-4.492 2.291-.027.014-9.176 4.68-9.176-4.68zm-.642 2.872L2.805 17l4.491 2.29.028.015 9.176 4.68 9.176-4.68.027-.014L30.195 17l-3.877-1.977-8.564 4.367c-.79.403-1.719.403-2.509 0l-8.563-4.367zm-3.877 9.13 3.877-1.976 8.563 4.367c.79.403 1.72.403 2.51 0l8.563-4.367 3.877 1.977L16.5 31.139 2.805 24.154z" fill="#F58A07"/></svg>