<svg width="122" height="25" fill="none" xmlns="http://www.w3.org/2000/svg"><g clip-path="url(#a)" fill="#063255"><path d="M121.784 18.871v3.02h-2.532c-2.703-.085-4.147-1.545-4.147-4.286V10.71h-1.768V8.06h1.768V5.096h3.737V8.03h2.857v2.641h-2.857v6.563c0 .888.178 1.599 1.545 1.599l1.397.038zM98.442 15.003v-.2a6.756 6.756 0 0 1 6.462-7.058h.541c3.529 0 6.625 2.054 6.625 6.949v1.042h-9.806c.1 2.255 1.32 3.53 3.374 3.53 1.768 0 2.594-.773 2.834-1.9h3.529c-.433 2.942-2.78 4.579-6.494 4.579-4.077-.031-7.065-2.61-7.065-6.942zm9.953-1.63c-.132-2.053-1.166-3.042-2.965-3.042-1.8 0-2.834 1.112-3.089 3.043h6.054zM83.184 15.003v-.2a6.755 6.755 0 0 1 6.447-7.058h.54c3.53 0 6.633 2.054 6.633 6.949v1.042h-9.798c.1 2.255 1.32 3.53 3.374 3.53 1.769 0 2.595-.773 2.834-1.9h3.529c-.44 2.942-2.788 4.579-6.502 4.579-4.069-.031-7.057-2.61-7.057-6.942zm9.953-1.63c-.132-2.053-1.166-3.042-2.965-3.042-1.8 0-2.803 1.143-3.089 3.035l6.054.008zM61.773 8.03h3.953l2.417 9.158L70.79 8.03h3.089l2.394 9.158 2.548-9.158h3.621L78.15 21.636h-3.707l-2.316-8.54-2.479 8.54h-3.752L61.773 8.03zM49.209 17.358h3.529c.162 1.228.772 1.93 2.393 1.93 1.452 0 2.124-.548 2.124-1.482 0-.934-.772-1.328-2.749-1.606-3.621-.548-5.019-1.59-5.019-4.247 0-2.834 2.594-4.24 5.405-4.24 3.02 0 5.297 1.097 5.621 4.224h-3.482a1.837 1.837 0 0 0-2.015-1.66H54.9c-1.22 0-1.93.572-1.93 1.406s.656 1.197 2.648 1.482c3.382.51 5.274 1.367 5.274 4.278 0 2.911-2.14 4.47-5.722 4.47-3.583 0-5.86-1.613-5.961-4.555zM34.214 8.03h3.737v2.155a4.679 4.679 0 0 1 4.41-2.471c2.648 0 4.57 1.614 4.57 5.297v8.656h-3.69V13.55c0-1.845-.719-2.725-2.387-2.725a2.687 2.687 0 0 0-2.91 2.455c-.02.164-.02.33 0 .494v7.86h-3.73V8.03zM27.002 4.61a1.884 1.884 0 1 1 1.946 1.814h-.07a1.761 1.761 0 0 1-1.868-1.652 1.141 1.141 0 0 1-.008-.162zm0 3.42h3.776v13.606h-3.76L27.002 8.03zM12.771 3.042H24.71V6.34h-7.722v4.919h6.116v3.174H16.98v7.204H12.77V3.042zM5.567 9.127c0 1.166 0 2.586-1.606 3.166 1.645.563 1.606 1.76 1.606 3.011v4.633c0 .88.355 1.413.989 1.544.139.047.285.068.432.062h1.544v3.089H5.984c-2.718 0-4.216-1.545-4.216-4.41V14.74a1.127 1.127 0 0 0-1.104-1.05H0v-2.71h.664a1.12 1.12 0 0 0 1.104-1.081v-5.56C1.768 1.521 3.235 0 5.984 0h2.571v3.042H7.011c-.147 0-.293.024-.432.07-.633.162-.989.687-.989 1.544l-.023 4.47z"/></g><defs><clipPath id="a"><path fill="#fff" d="M0 0h122v24.709H0z"/></clipPath></defs></svg>