<svg width="41" height="42" fill="none" xmlns="http://www.w3.org/2000/svg"><path fill-rule="evenodd" clip-rule="evenodd" d="M24.886 1.78c0-.983-.791-1.78-1.767-1.78-.976 0-1.767.797-1.767 1.78v.891h-.883c-.976 0-1.767.797-1.767 1.78 0 .984.791 1.782 1.767 1.782h.883v.89c0 .983.791 1.78 1.767 1.78.976 0 1.767-.797 1.767-1.78v-.89h.883c.976 0 1.767-.798 1.767-1.781 0-.984-.791-1.78-1.767-1.78h-.883V1.78zm-3.172 16.027a3.514 3.514 0 0 0-4.997 0l-3.681 3.71L1.035 33.613a3.582 3.582 0 0 0 0 5.037l2.289 2.307a3.514 3.514 0 0 0 4.997 0l12-12.097 3.681-3.71a3.581 3.581 0 0 0 0-5.036l-2.288-2.307zm-2.641 7.276-2.29-2.307 2.432-2.45 2.289 2.306-2.431 2.451zm-4.788.212 2.289 2.306L5.822 38.438l-2.289-2.306 10.752-10.837zm18.55 1.416c.977 0 1.768.797 1.768 1.78.975 0 1.766.798 1.766 1.782 0 .983-.79 1.78-1.766 1.78 0 .984-.791 1.78-1.767 1.78a1.774 1.774 0 0 1-1.767-1.78 1.774 1.774 0 0 1-1.767-1.78c0-.984.791-1.781 1.767-1.781 0-.984.791-1.781 1.767-1.781zm3.383-18.698a1.757 1.757 0 0 0-2.499 0 1.79 1.79 0 0 0 0 2.518l.883.89-.883.891a1.79 1.79 0 0 0 0 2.518c.69.696 1.809.696 2.499 0l.883-.89.883.89c.69.696 1.809.696 2.498 0a1.79 1.79 0 0 0 0-2.518l-.883-.89.884-.89a1.79 1.79 0 0 0 0-2.519 1.757 1.757 0 0 0-2.499 0l-.883.89-.883-.89z" fill="#F58A07"/></svg>