<svg width="22" height="20" fill="none" xmlns="http://www.w3.org/2000/svg"><path fill-rule="evenodd" clip-rule="evenodd" d="M19.64 4.3c.302.292.518.654.623 1.05.282 1.466.42 2.952.41 4.442a22.69 22.69 0 0 1-.41 4.375c-.105.395-.32.757-.623 1.05a2.51 2.51 0 0 1-1.102.616c-1.53.384-7.648.384-7.648.384s-6.118 0-7.648-.384a2.516 2.516 0 0 1-1.086-.588 2.291 2.291 0 0 1-.639-1.012 22.687 22.687 0 0 1-.41-4.441c-.007-1.478.13-2.954.41-4.409.106-.395.32-.758.624-1.05a2.51 2.51 0 0 1 1.101-.616c1.53-.384 7.648-.384 7.648-.384s6.119 0 7.648.35a2.51 2.51 0 0 1 1.102.616zm-5.637 5.492L8.89 12.517v-5.45l5.113 2.725z" fill="#fff"/></svg>